ffmpeg started on 2025-05-28 at 21:31:57
Report written to "D:\Convert\FFMetrics\reports\ssim_report-6.txt"
Log level: 32
Command line:
ffmpeg -hide_banner -nostdin -i "G:\\\xc0\xed\xe8\xec\xe5\\\xce\xed\xe3\xee\xe8\xed\xe3\xe8\\!_36_\xce\xf1\xe5\xed\xfc_2024\\JamClub\\\xcb\xfe\xe1\xee\xe2\xfc \xcc\xf3\xf0\xe0\xe8\\JamClub_Murai_no_Koi_06_1080p_HEVC.mkv" -i "G:\\\xc0\xed\xe8\xec\xe5\\\xce\xed\xe3\xee\xe8\xed\xe3\xe8\\!_36_\xce\xf1\xe5\xed\xfc_2024\\JamClub\\\xcb\xfe\xe1\xee\xe2\xfc \xcc\xf3\xf0\xe0\xe8\\JamClub_Murai_no_Koi_06_1080p.mp4" -lavfi "[0:v]settb=AVTB,setpts=PTS-STARTPTS,format=pix_fmts=yuv420p10,fps=24000/1001,scale=1920:1080:flags=bicubic[main];[1:v]settb=AVTB,setpts=PTS-STARTPTS,format=pix_fmts=yuv420p,fps=24000/1001,scale=1920:1080:flags=bicubic[ref];[main][ref]ssim=eof_action=endall:stats_file='D\\:/Convert/FFMetrics/logs/ssim_logfile-6.txt'" -f null -
Input #0, matroska,webm, from 'G:\Аниме\Онгоинги\!_36_Осень_2024\JamClub\Любовь Мураи\JamClub_Murai_no_Koi_06_1080p_HEVC.mkv':
  Metadata:
    COMPATIBLE_BRANDS: isomiso2avc1mp41
    MAJOR_BRAND     : isom
    MINOR_VERSION   : 512
    ENCODER         : Lavf61.7.100
  Duration: 00:24:04.25, start: -0.021000, bitrate: 1425 kb/s
  Stream #0:0: Video: hevc (Main 10), yuv420p10le(tv, bt709, progressive), 1920x1080 [SAR 1:1 DAR 16:9], 23.98 fps, 23.98 tbr, 1k tbn (default)
      Metadata:
        HANDLER_NAME    : VideoHandler
        VENDOR_ID       : [0][0][0][0]
        ENCODER         : Lavc61.19.100 libx265
        BPS             : 1227843
        DURATION        : 00:24:04.150708333
        NUMBER_OF_FRAMES: 34625
        NUMBER_OF_BYTES : 221648842
        _STATISTICS_WRITING_APP: mkvpropedit v66.0.0 ('Josie') 64-bit
        _STATISTICS_WRITING_DATE_UTC: 2025-05-28 12:46:06
        _STATISTICS_TAGS: BPS DURATION NUMBER_OF_FRAMES NUMBER_OF_BYTES
  Stream #0:1(eng): Audio: aac (LC), 48000 Hz, stereo, fltp (default)
      Metadata:
        HANDLER_NAME    : SoundHandler
        VENDOR_ID       : [0][0][0][0]
        ENCODER         : Lavc61.19.100 aac
        BPS             : 194035
        DURATION        : 00:24:04.227000000
        NUMBER_OF_FRAMES: 67699
        NUMBER_OF_BYTES : 35028893
        _STATISTICS_WRITING_APP: mkvpropedit v66.0.0 ('Josie') 64-bit
        _STATISTICS_WRITING_DATE_UTC: 2025-05-28 12:46:06
        _STATISTICS_TAGS: BPS DURATION NUMBER_OF_FRAMES NUMBER_OF_BYTES
Input #1, mov,mp4,m4a,3gp,3g2,mj2, from 'G:\Аниме\Онгоинги\!_36_Осень_2024\JamClub\Любовь Мураи\JamClub_Murai_no_Koi_06_1080p.mp4':
  Metadata:
    major_brand     : isom
    minor_version   : 512
    compatible_brands: isomiso2avc1mp41
    encoder         : Lavf60.16.100
  Duration: 00:24:04.23, start: 0.000000, bitrate: 4054 kb/s
  Stream #1:0[0x1](und): Video: h264 (High) (avc1 / 0x31637661), yuv420p(tv, bt709, progressive), 1920x1080 [SAR 1:1 DAR 16:9], 3856 kb/s, 23.98 fps, 23.98 tbr, 90k tbn (default)
      Metadata:
        handler_name    : VideoHandler
        vendor_id       : [0][0][0][0]
  Stream #1:1[0x2](eng): Audio: aac (LC) (mp4a / 0x6134706D), 48000 Hz, stereo, fltp, 191 kb/s (default)
      Metadata:
        handler_name    : SoundHandler
        vendor_id       : [0][0][0][0]
Stream mapping:
  Stream #0:0 (hevc) -> settb:default
  Stream #1:0 (h264) -> settb:default
  ssim:default -> Stream #0:0 (wrapped_avframe)
  Stream #0:1 -> #0:1 (aac (native) -> pcm_s16le (native))
Output #0, null, to 'pipe:':
  Metadata:
    COMPATIBLE_BRANDS: isomiso2avc1mp41
    MAJOR_BRAND     : isom
    MINOR_VERSION   : 512
    encoder         : Lavf61.7.100
  Stream #0:0: Video: wrapped_avframe, yuv420p10le(tv, bt709, progressive), 1920x1080 [SAR 1:1 DAR 16:9], q=2-31, 200 kb/s, 23.98 fps, 23.98 tbn
      Metadata:
        encoder         : Lavc61.19.100 wrapped_avframe
  Stream #0:1(eng): Audio: pcm_s16le, 48000 Hz, stereo, s16, 1536 kb/s (default)
      Metadata:
        HANDLER_NAME    : SoundHandler
        VENDOR_ID       : [0][0][0][0]
        _STATISTICS_TAGS: BPS DURATION NUMBER_OF_FRAMES NUMBER_OF_BYTES
        BPS             : 194035
        DURATION        : 00:24:04.227000000
        NUMBER_OF_FRAMES: 67699
        NUMBER_OF_BYTES : 35028893
        _STATISTICS_WRITING_APP: mkvpropedit v66.0.0 ('Josie') 64-bit
        _STATISTICS_WRITING_DATE_UTC: 2025-05-28 12:46:06
        encoder         : Lavc61.19.100 pcm_s16le
frame=  118 fps=0.0 q=-0.0 size=N/A time=00:00:04.92 bitrate=N/A speed=9.54x    frame=  281 fps=275 q=-0.0 size=N/A time=00:00:11.72 bitrate=N/A speed=11.5x    frame=  488 fps=316 q=-0.0 size=N/A time=00:00:20.35 bitrate=N/A speed=13.2x    frame=  680 fps=331 q=-0.0 size=N/A time=00:00:28.36 bitrate=N/A speed=13.8x    frame=  842 fps=327 q=-0.0 size=N/A time=00:00:35.11 bitrate=N/A speed=13.6x    frame=  982 fps=319 q=-0.0 size=N/A time=00:00:40.95 bitrate=N/A speed=13.3x    frame= 1150 fps=319 q=-0.0 size=N/A time=00:00:47.96 bitrate=N/A speed=13.3x    frame= 1352 fps=329 q=-0.0 size=N/A time=00:00:56.38 bitrate=N/A speed=13.7x    frame= 1484 fps=320 q=-0.0 size=N/A time=00:01:01.89 bitrate=N/A speed=13.3x    frame= 1705 fps=332 q=-0.0 size=N/A time=00:01:11.11 bitrate=N/A speed=13.8x    frame= 1884 fps=333 q=-0.0 size=N/A time=00:01:18.57 bitrate=N/A speed=13.9x    frame= 2034 fps=329 q=-0.0 size=N/A time=00:01:24.83 bitrate=N/A speed=13.7x    frame= 2176 fps=325 q=-0.0 size=N/A time=00:01:30.75 bitrate=N/A speed=13.6x    frame= 2367 fps=328 q=-0.0 size=N/A time=00:01:38.72 bitrate=N/A speed=13.7x    frame= 2557 fps=331 q=-0.0 size=N/A time=00:01:46.64 bitrate=N/A speed=13.8x    frame= 2795 fps=339 q=-0.0 size=N/A time=00:01:56.57 bitrate=N/A speed=14.1x    frame= 3042 fps=347 q=-0.0 size=N/A time=00:02:06.87 bitrate=N/A speed=14.5x    frame= 3288 fps=355 q=-0.0 size=N/A time=00:02:17.13 bitrate=N/A speed=14.8x    frame= 3542 fps=362 q=-0.0 size=N/A time=00:02:27.73 bitrate=N/A speed=15.1x    frame= 3751 fps=364 q=-0.0 size=N/A time=00:02:36.44 bitrate=N/A speed=15.2x    frame= 3963 fps=366 q=-0.0 size=N/A time=00:02:45.29 bitrate=N/A speed=15.3x    frame= 4175 fps=368 q=-0.0 size=N/A time=00:02:54.13 bitrate=N/A speed=15.3x    frame= 4370 fps=368 q=-0.0 size=N/A time=00:03:02.26 bitrate=N/A speed=15.4x    frame= 4631 fps=374 q=-0.0 size=N/A time=00:03:13.15 bitrate=N/A speed=15.6x    frame= 4894 fps=379 q=-0.0 size=N/A time=00:03:24.12 bitrate=N/A speed=15.8x    frame= 5130 fps=382 q=-0.0 size=N/A time=00:03:33.96 bitrate=N/A speed=15.9x    frame= 5353 fps=384 q=-0.0 size=N/A time=00:03:43.26 bitrate=N/A speed=  16x    frame= 5605 fps=387 q=-0.0 size=N/A time=00:03:53.77 bitrate=N/A speed=16.2x    frame= 5859 fps=391 q=-0.0 size=N/A time=00:04:04.36 bitrate=N/A speed=16.3x    frame= 6114 fps=395 q=-0.0 size=N/A time=00:04:15.00 bitrate=N/A speed=16.5x    frame= 6357 fps=397 q=-0.0 size=N/A time=00:04:25.13 bitrate=N/A speed=16.6x    frame= 6616 fps=400 q=-0.0 size=N/A time=00:04:35.94 bitrate=N/A speed=16.7x    frame= 6902 fps=405 q=-0.0 size=N/A time=00:04:47.87 bitrate=N/A speed=16.9x    frame= 7184 fps=409 q=-0.0 size=N/A time=00:04:59.63 bitrate=N/A speed=17.1x    frame= 7466 fps=413 q=-0.0 size=N/A time=00:05:11.39 bitrate=N/A speed=17.2x    frame= 7706 fps=414 q=-0.0 size=N/A time=00:05:21.40 bitrate=N/A speed=17.3x    frame= 7947 fps=416 q=-0.0 size=N/A time=00:05:31.45 bitrate=N/A speed=17.4x    frame= 8183 fps=417 q=-0.0 size=N/A time=00:05:41.29 bitrate=N/A speed=17.4x    frame= 8380 fps=416 q=-0.0 size=N/A time=00:05:49.51 bitrate=N/A speed=17.4x    frame= 8620 fps=417 q=-0.0 size=N/A time=00:05:59.56 bitrate=N/A speed=17.4x    frame= 8848 fps=418 q=-0.0 size=N/A time=00:06:09.03 bitrate=N/A speed=17.4x    frame= 9083 fps=419 q=-0.0 size=N/A time=00:06:18.83 bitrate=N/A speed=17.5x    frame= 9306 fps=419 q=-0.0 size=N/A time=00:06:28.13 bitrate=N/A speed=17.5x    frame= 9568 fps=421 q=-0.0 size=N/A time=00:06:39.06 bitrate=N/A speed=17.6x    frame= 9826 fps=423 q=-0.0 size=N/A time=00:06:49.82 bitrate=N/A speed=17.6x    frame=10082 fps=425 q=-0.0 size=N/A time=00:07:00.50 bitrate=N/A speed=17.7x    frame=10363 fps=427 q=-0.0 size=N/A time=00:07:12.22 bitrate=N/A speed=17.8x    frame=10619 fps=429 q=-0.0 size=N/A time=00:07:22.90 bitrate=N/A speed=17.9x    frame=10859 fps=429 q=-0.0 size=N/A time=00:07:32.91 bitrate=N/A speed=17.9x    frame=11116 fps=430 q=-0.0 size=N/A time=00:07:43.62 bitrate=N/A speed=  18x    frame=11387 fps=432 q=-0.0 size=N/A time=00:07:54.93 bitrate=N/A speed=  18x    frame=11652 fps=434 q=-0.0 size=N/A time=00:08:05.98 bitrate=N/A speed=18.1x    frame=11898 fps=435 q=-0.0 size=N/A time=00:08:16.24 bitrate=N/A speed=18.1x    frame=12188 fps=437 q=-0.0 size=N/A time=00:08:28.34 bitrate=N/A speed=18.2x    frame=12458 fps=439 q=-0.0 size=N/A time=00:08:39.60 bitrate=N/A speed=18.3x    frame=12710 fps=439 q=-0.0 size=N/A time=00:08:50.11 bitrate=N/A speed=18.3x    frame=12973 fps=441 q=-0.0 size=N/A time=00:09:01.08 bitrate=N/A speed=18.4x    frame=13249 fps=442 q=-0.0 size=N/A time=00:09:12.59 bitrate=N/A speed=18.4x    frame=13505 fps=443 q=-0.0 size=N/A time=00:09:23.27 bitrate=N/A speed=18.5x    frame=13775 fps=445 q=-0.0 size=N/A time=00:09:34.53 bitrate=N/A speed=18.5x    frame=14026 fps=445 q=-0.0 size=N/A time=00:09:45.00 bitrate=N/A speed=18.6x    frame=14290 fps=446 q=-0.0 size=N/A time=00:09:56.01 bitrate=N/A speed=18.6x    frame=14572 fps=448 q=-0.0 size=N/A time=00:10:07.77 bitrate=N/A speed=18.7x    frame=14812 fps=448 q=-0.0 size=N/A time=00:10:17.78 bitrate=N/A speed=18.7x    frame=15006 fps=447 q=-0.0 size=N/A time=00:10:25.87 bitrate=N/A speed=18.7x    frame=15278 fps=448 q=-0.0 size=N/A time=00:10:37.21 bitrate=N/A speed=18.7x    frame=15552 fps=450 q=-0.0 size=N/A time=00:10:48.64 bitrate=N/A speed=18.7x    frame=15840 fps=451 q=-0.0 size=N/A time=00:11:00.66 bitrate=N/A speed=18.8x    frame=16095 fps=452 q=-0.0 size=N/A time=00:11:11.29 bitrate=N/A speed=18.8x    frame=16373 fps=453 q=-0.0 size=N/A time=00:11:22.89 bitrate=N/A speed=18.9x    frame=16650 fps=454 q=-0.0 size=N/A time=00:11:34.44 bitrate=N/A speed=18.9x    frame=16885 fps=454 q=-0.0 size=N/A time=00:11:44.24 bitrate=N/A speed=18.9x    frame=17140 fps=455 q=-0.0 size=N/A time=00:11:54.88 bitrate=N/A speed=  19x    frame=17363 fps=455 q=-0.0 size=N/A time=00:12:04.18 bitrate=N/A speed=  19x    frame=17599 fps=455 q=-0.0 size=N/A time=00:12:14.02 bitrate=N/A speed=  19x    frame=17833 fps=455 q=-0.0 size=N/A time=00:12:23.78 bitrate=N/A speed=  19x    frame=18077 fps=455 q=-0.0 size=N/A time=00:12:33.96 bitrate=N/A speed=  19x    frame=18326 fps=455 q=-0.0 size=N/A time=00:12:44.34 bitrate=N/A speed=  19x    frame=18574 fps=455 q=-0.0 size=N/A time=00:12:54.69 bitrate=N/A speed=  19x    frame=18790 fps=455 q=-0.0 size=N/A time=00:13:03.69 bitrate=N/A speed=  19x    frame=19064 fps=456 q=-0.0 size=N/A time=00:13:15.12 bitrate=N/A speed=  19x    frame=19261 fps=455 q=-0.0 size=N/A time=00:13:23.34 bitrate=N/A speed=  19x    frame=19521 fps=456 q=-0.0 size=N/A time=00:13:34.18 bitrate=N/A speed=  19x    frame=19754 fps=456 q=-0.0 size=N/A time=00:13:43.90 bitrate=N/A speed=  19x    frame=19996 fps=456 q=-0.0 size=N/A time=00:13:53.99 bitrate=N/A speed=  19x    frame=20221 fps=456 q=-0.0 size=N/A time=00:14:03.38 bitrate=N/A speed=  19x    frame=20460 fps=456 q=-0.0 size=N/A time=00:14:13.35 bitrate=N/A speed=  19x    frame=20690 fps=456 q=-0.0 size=N/A time=00:14:22.94 bitrate=N/A speed=  19x    frame=20960 fps=456 q=-0.0 size=N/A time=00:14:34.20 bitrate=N/A speed=  19x    frame=21201 fps=456 q=-0.0 size=N/A time=00:14:44.25 bitrate=N/A speed=  19x    frame=21455 fps=457 q=-0.0 size=N/A time=00:14:54.85 bitrate=N/A speed=19.1x    frame=21686 fps=457 q=-0.0 size=N/A time=00:15:04.48 bitrate=N/A speed=  19x    frame=21929 fps=457 q=-0.0 size=N/A time=00:15:14.62 bitrate=N/A speed=19.1x    frame=22188 fps=457 q=-0.0 size=N/A time=00:15:25.42 bitrate=N/A speed=19.1x    frame=22438 fps=458 q=-0.0 size=N/A time=00:15:35.85 bitrate=N/A speed=19.1x    frame=22703 fps=458 q=-0.0 size=N/A time=00:15:46.90 bitrate=N/A speed=19.1x    frame=22976 fps=459 q=-0.0 size=N/A time=00:15:58.29 bitrate=N/A speed=19.1x    frame=23242 fps=460 q=-0.0 size=N/A time=00:16:09.38 bitrate=N/A speed=19.2x    frame=23472 fps=459 q=-0.0 size=N/A time=00:16:18.97 bitrate=N/A speed=19.2x    frame=23673 fps=459 q=-0.0 size=N/A time=00:16:27.36 bitrate=N/A speed=19.1x    frame=23924 fps=459 q=-0.0 size=N/A time=00:16:37.83 bitrate=N/A speed=19.1x    frame=24158 fps=459 q=-0.0 size=N/A time=00:16:47.58 bitrate=N/A speed=19.1x    frame=24368 fps=458 q=-0.0 size=N/A time=00:16:56.34 bitrate=N/A speed=19.1x    frame=24630 fps=459 q=-0.0 size=N/A time=00:17:07.27 bitrate=N/A speed=19.1x    frame=24894 fps=459 q=-0.0 size=N/A time=00:17:18.28 bitrate=N/A speed=19.2x    frame=25158 fps=460 q=-0.0 size=N/A time=00:17:29.29 bitrate=N/A speed=19.2x    frame=25429 fps=460 q=-0.0 size=N/A time=00:17:40.60 bitrate=N/A speed=19.2x    frame=25644 fps=460 q=-0.0 size=N/A time=00:17:49.56 bitrate=N/A speed=19.2x    frame=25877 fps=460 q=-0.0 size=N/A time=00:17:59.28 bitrate=N/A speed=19.2x    frame=26123 fps=460 q=-0.0 size=N/A time=00:18:09.54 bitrate=N/A speed=19.2x    frame=26346 fps=460 q=-0.0 size=N/A time=00:18:18.84 bitrate=N/A speed=19.2x    frame=26597 fps=460 q=-0.0 size=N/A time=00:18:29.31 bitrate=N/A speed=19.2x    frame=26851 fps=460 q=-0.0 size=N/A time=00:18:39.91 bitrate=N/A speed=19.2x    frame=27119 fps=461 q=-0.0 size=N/A time=00:18:51.08 bitrate=N/A speed=19.2x    frame=27380 fps=461 q=-0.0 size=N/A time=00:19:01.97 bitrate=N/A speed=19.2x    frame=27623 fps=461 q=-0.0 size=N/A time=00:19:12.10 bitrate=N/A speed=19.2x    frame=27887 fps=462 q=-0.0 size=N/A time=00:19:23.12 bitrate=N/A speed=19.3x    frame=28171 fps=463 q=-0.0 size=N/A time=00:19:34.96 bitrate=N/A speed=19.3x    frame=28429 fps=463 q=-0.0 size=N/A time=00:19:45.72 bitrate=N/A speed=19.3x    frame=28674 fps=463 q=-0.0 size=N/A time=00:19:55.94 bitrate=N/A speed=19.3x    frame=28896 fps=463 q=-0.0 size=N/A time=00:20:05.20 bitrate=N/A speed=19.3x    frame=29168 fps=463 q=-0.0 size=N/A time=00:20:16.54 bitrate=N/A speed=19.3x    frame=29427 fps=464 q=-0.0 size=N/A time=00:20:27.35 bitrate=N/A speed=19.3x    frame=29695 fps=464 q=-0.0 size=N/A time=00:20:38.52 bitrate=N/A speed=19.4x    frame=29948 fps=464 q=-0.0 size=N/A time=00:20:49.08 bitrate=N/A speed=19.4x    frame=30207 fps=465 q=-0.0 size=N/A time=00:20:59.88 bitrate=N/A speed=19.4x    frame=30494 fps=465 q=-0.0 size=N/A time=00:21:11.85 bitrate=N/A speed=19.4x    frame=30707 fps=465 q=-0.0 size=N/A time=00:21:20.73 bitrate=N/A speed=19.4x    frame=30978 fps=465 q=-0.0 size=N/A time=00:21:32.04 bitrate=N/A speed=19.4x    frame=31192 fps=465 q=-0.0 size=N/A time=00:21:40.96 bitrate=N/A speed=19.4x    frame=31465 fps=465 q=-0.0 size=N/A time=00:21:52.35 bitrate=N/A speed=19.4x    frame=31721 fps=466 q=-0.0 size=N/A time=00:22:03.03 bitrate=N/A speed=19.4x    frame=32001 fps=466 q=-0.0 size=N/A time=00:22:14.70 bitrate=N/A speed=19.4x    frame=32230 fps=466 q=-0.0 size=N/A time=00:22:24.25 bitrate=N/A speed=19.4x    frame=32427 fps=466 q=-0.0 size=N/A time=00:22:32.47 bitrate=N/A speed=19.4x    frame=32634 fps=465 q=-0.0 size=N/A time=00:22:41.10 bitrate=N/A speed=19.4x    frame=32850 fps=465 q=-0.0 size=N/A time=00:22:50.11 bitrate=N/A speed=19.4x    frame=33055 fps=464 q=-0.0 size=N/A time=00:22:58.66 bitrate=N/A speed=19.4x    frame=33241 fps=463 q=-0.0 size=N/A time=00:23:06.42 bitrate=N/A speed=19.3x    frame=33432 fps=463 q=-0.0 size=N/A time=00:23:14.39 bitrate=N/A speed=19.3x    frame=33624 fps=462 q=-0.0 size=N/A time=00:23:22.40 bitrate=N/A speed=19.3x    frame=33810 fps=461 q=-0.0 size=N/A time=00:23:30.15 bitrate=N/A speed=19.2x    frame=33987 fps=461 q=-0.0 size=N/A time=00:23:37.54 bitrate=N/A speed=19.2x    frame=34140 fps=459 q=-0.0 size=N/A time=00:23:43.92 bitrate=N/A speed=19.2x    frame=34288 fps=458 q=-0.0 size=N/A time=00:23:50.09 bitrate=N/A speed=19.1x    frame=34434 fps=457 q=-0.0 size=N/A time=00:23:56.18 bitrate=N/A speed=19.1x    [Parsed_ssim_10 @ 0000017cfb7249c0] SSIM Y:0.993562 (21.912578) U:0.993785 (22.065911) V:0.994094 (22.287238) All:0.993688 (21.998355)
[out#0/null @ 0000017cef4206c0] video:14878KiB audio:270796KiB subtitle:0KiB other streams:0KiB global headers:0KiB muxing overhead: unknown
frame=34625 fps=457 q=-0.0 Lsize=N/A time=00:24:04.15 bitrate=N/A speed=19.1x    
